<?xml version="1.0" encoding="UTF-8"?>
<svg width="171px" height="24px" viewBox="0 0 171 24" version="1.1" xmlns="http://www.w3.org/2000/svg" xmlns:xlink="http://www.w3.org/1999/xlink">
    <title>logo-primeflex</title>
    <g id="Landing" stroke="none" stroke-width="1" fill="none" fill-rule="evenodd">
        <g id="PrimeFlex-Setup" transform="translate(-32.000000, -20.000000)">
            <g id="logo-primeflex" transform="translate(32.000000, 20.000000)">
                <g id="text-primeflex" transform="translate(52.345344, 1.474498)" fill-rule="nonzero">
                    <path d="M3.22882537,21.5255024 C3.52480102,21.5255024 3.65933542,21.3640612 3.65933542,21.0949924 L3.65933542,14.3144591 L6.88816078,14.3144591 C9.41740732,14.3144591 10.7627512,12.9422083 10.7627512,10.4398687 L10.7627512,3.87459044 C10.7627512,1.3453439 9.41740732,-1.77635684e-15 6.88816078,-1.77635684e-15 L0.430510049,-1.77635684e-15 C0.161441268,-1.77635684e-15 -7.10542736e-15,0.161441268 -7.10542736e-15,0.430510049 L-7.10542736e-15,21.0949924 C-7.10542736e-15,21.3640612 0.161441268,21.5255024 0.430510049,21.5255024 L3.22882537,21.5255024 Z M6.02714068,10.7627512 L3.65933542,10.7627512 L3.65933542,3.5517079 L6.02714068,3.5517079 C6.75362639,3.5517079 7.10341581,3.9284042 7.10341581,4.62798303 L7.10341581,9.6864761 C7.10341581,10.3591481 6.75362639,10.7627512 6.02714068,10.7627512 Z M16.6822644,21.5255024 C16.9513332,21.5255024 17.1127744,21.3640612 17.1127744,21.0949924 L17.1127744,14.3144591 L18.969349,14.3144591 L20.7721099,21.1488061 C20.8259236,21.3909681 20.960458,21.5255024 21.2295268,21.5255024 L24.0278421,21.5255024 C24.3238178,21.5255024 24.485259,21.3640612 24.4045384,21.0411786 L22.5479638,13.9915766 C23.839494,13.4265321 24.5121659,12.2426295 24.5121659,10.4398687 L24.5121659,3.87459044 C24.5121659,1.3453439 23.166822,-1.77635684e-15 20.6375755,-1.77635684e-15 L13.8839491,-1.77635684e-15 C13.6148803,-1.77635684e-15 13.453439,0.161441268 13.453439,0.430510049 L13.453439,21.0949924 C13.453439,21.3640612 13.6148803,21.5255024 13.8839491,21.5255024 L16.6822644,21.5255024 Z M19.7765554,10.7627512 L17.1127744,10.7627512 L17.1127744,3.5517079 L19.7765554,3.5517079 C20.4761342,3.5517079 20.8528305,3.9284042 20.8528305,4.62798303 L20.8528305,9.6864761 C20.8528305,10.3860549 20.4761342,10.7627512 19.7765554,10.7627512 Z M30.4316791,21.5255024 C30.7007479,21.5255024 30.8621891,21.3640612 30.8621891,21.0949924 L30.8621891,0.430510049 C30.8621891,0.161441268 30.7007479,-1.77635684e-15 30.4316791,-1.77635684e-15 L27.6333638,-1.77635684e-15 C27.3373881,-1.77635684e-15 27.2028537,0.161441268 27.2028537,0.430510049 L27.2028537,21.0949924 C27.2028537,21.3640612 27.3373881,21.5255024 27.6333638,21.5255024 L30.4316791,21.5255024 Z M36.5664473,21.5255024 C36.9162367,21.5255024 37.1045848,21.3371543 37.1045848,20.9873649 L37.1045848,8.87926976 L37.292933,8.87926976 L39.9567139,21.0411786 C40.0374345,21.3640612 40.2257827,21.5255024 40.5486652,21.5255024 L41.8671023,21.5255024 C42.1899848,21.5255024 42.3783329,21.3640612 42.4590536,21.0411786 L45.1228345,8.87926976 L45.3111826,8.87926976 L45.3111826,20.9873649 C45.3111826,21.3371543 45.4995308,21.5255024 45.8493202,21.5255024 L48.3516599,21.5255024 C48.7014493,21.5255024 48.8897974,21.3371543 48.8897974,20.9873649 L48.8897974,0.538137561 C48.8897974,0.188348146 48.7014493,-1.77635684e-15 48.3516599,-1.77635684e-15 L44.799952,-1.77635684e-15 C44.4770694,-1.77635684e-15 44.2887213,0.161441268 44.2080006,0.484323805 L41.2213372,13.8839491 L38.2346737,0.484323805 C38.1539531,0.161441268 37.9656049,-1.77635684e-15 37.6427224,-1.77635684e-15 L34.0910145,-1.77635684e-15 C33.7412251,-1.77635684e-15 33.5528769,0.188348146 33.5528769,0.538137561 L33.5528769,20.9873649 C33.5528769,21.3371543 33.7412251,21.5255024 34.0910145,21.5255024 L36.5664473,21.5255024 Z M61.8858195,21.5255024 C62.2087021,21.5255024 62.3163296,21.3640612 62.3163296,21.0949924 L62.3163296,18.4043046 C62.3163296,18.1083289 62.2087021,17.9737945 61.8858195,17.9737945 L55.1591,17.9737945 L55.1591,12.5386052 L60.2983137,12.5386052 C60.5673825,12.5386052 60.7288238,12.3771639 60.7288238,12.0811882 L60.7288238,9.41740732 C60.7288238,9.12143166 60.5673825,8.95999039 60.2983137,8.95999039 L55.1591,8.95999039 L55.1591,3.57861478 L61.8858195,3.57861478 C62.2087021,3.57861478 62.3163296,3.39026663 62.3163296,3.12119785 L62.3163296,0.430510049 C62.3163296,0.161441268 62.2087021,-1.77635684e-15 61.8858195,-1.77635684e-15 L51.9840884,-1.77635684e-15 C51.7419265,-1.77635684e-15 51.5804852,0.161441268 51.5804852,0.430510049 L51.5804852,21.0949924 C51.5804852,21.3640612 51.7419265,21.5255024 51.9840884,21.5255024 L61.8858195,21.5255024 Z" id="PRIME" fill-opacity="0.87" fill="#FFFFFF"></path>
                    <path d="M68.2358427,21.5255024 C68.5049115,21.5255024 68.6663528,21.3640612 68.6663528,21.0949924 L68.6663528,12.5116983 L73.7248459,12.5116983 C73.9939146,12.5116983 74.1553559,12.3771639 74.1553559,12.0811882 L74.1553559,9.39050044 C74.1553559,9.12143166 73.9939146,8.95999039 73.7248459,8.95999039 L68.6663528,8.95999039 L68.6663528,3.5517079 L75.3392585,3.5517079 C75.6083273,3.5517079 75.7697686,3.39026663 75.7697686,3.12119785 L75.7697686,0.430510049 C75.7697686,0.161441268 75.6083273,-1.77635684e-15 75.3392585,-1.77635684e-15 L65.4375274,-1.77635684e-15 C65.1415518,-1.77635684e-15 65.0070174,0.161441268 65.0070174,0.430510049 L65.0070174,21.0949924 C65.0070174,21.3640612 65.1415518,21.5255024 65.4375274,21.5255024 L68.2358427,21.5255024 Z M88.5236288,21.5255024 C88.8196045,21.5255024 88.9541388,21.3909681 88.9541388,21.0949924 L88.9541388,21.0949924 L88.9541388,18.4043046 C88.9541388,18.1352358 88.8196045,17.9737945 88.5236288,17.9737945 L88.5236288,17.9737945 L82.1197918,17.9737945 L82.1197918,0.430510049 C82.1197918,0.161441268 81.9852574,-1.77635684e-15 81.6892818,-1.77635684e-15 L81.6892818,-1.77635684e-15 L78.8909665,-1.77635684e-15 C78.6218977,-1.77635684e-15 78.4604564,0.161441268 78.4604564,0.430510049 L78.4604564,0.430510049 L78.4604564,21.0949924 C78.4604564,21.3909681 78.6218977,21.5255024 78.8909665,21.5255024 L78.8909665,21.5255024 L88.5236288,21.5255024 Z M101.950161,21.5255024 C102.273043,21.5255024 102.380671,21.3640612 102.380671,21.0949924 L102.380671,18.4043046 C102.380671,18.1083289 102.273043,17.9737945 101.950161,17.9737945 L95.2234414,17.9737945 L95.2234414,12.5386052 L100.362655,12.5386052 C100.631724,12.5386052 100.793165,12.3771639 100.793165,12.0811882 L100.793165,9.41740732 C100.793165,9.12143166 100.631724,8.95999039 100.362655,8.95999039 L95.2234414,8.95999039 L95.2234414,3.57861478 L101.950161,3.57861478 C102.273043,3.57861478 102.380671,3.39026663 102.380671,3.12119785 L102.380671,0.430510049 C102.380671,0.161441268 102.273043,-1.77635684e-15 101.950161,-1.77635684e-15 L92.0484298,-1.77635684e-15 C91.8062679,-1.77635684e-15 91.6448266,0.161441268 91.6448266,0.430510049 L91.6448266,21.0949924 C91.6448266,21.3640612 91.8062679,21.5255024 92.0484298,21.5255024 L101.950161,21.5255024 Z M107.492978,21.5255024 C107.788953,21.5255024 108.004209,21.4178749 108.111836,21.1488061 L110.694896,14.6373417 L113.277957,21.1488061 C113.385584,21.4178749 113.600839,21.5255024 113.896815,21.5255024 L116.668223,21.5255024 C117.098733,21.5255024 117.233268,21.2564337 117.071826,20.8797374 L112.793633,10.5474962 L116.910385,0.645765073 C117.071826,0.269068781 116.937292,-1.77635684e-15 116.506782,-1.77635684e-15 L113.816094,-1.77635684e-15 C113.520119,-1.77635684e-15 113.304863,0.107627512 113.197236,0.376696293 L110.694896,6.75362639 L108.192557,0.376696293 C108.084929,0.107627512 107.869674,-1.77635684e-15 107.573698,-1.77635684e-15 L104.883011,-1.77635684e-15 C104.452501,-1.77635684e-15 104.317966,0.269068781 104.479407,0.645765073 L108.569253,10.5474962 L104.317966,20.8797374 C104.156525,21.2564337 104.291059,21.5255024 104.721569,21.5255024 L107.492978,21.5255024 Z" id="FLEX" fill="#0078E3"></path>
                </g>
                <g id="icon-primeflex" fill="#FFFFFF" fill-opacity="0.87">
                    <rect id="Rectangle" x="0" y="0" width="16.8959994" height="4.22399985"></rect>
                    <rect id="Rectangle" x="0" y="6.33599977" width="8.4479997" height="4.22399985"></rect>
                    <rect id="Rectangle" x="0" y="19.0079993" width="8.97599968" height="4.22399985"></rect>
                    <rect id="Rectangle" x="11.0879996" y="19.0079993" width="8.97599968" height="4.22399985"></rect>
                    <rect id="Rectangle" x="22.1759992" y="19.0079993" width="8.97599968" height="4.22399985"></rect>
                    <rect id="Rectangle" x="33.2639988" y="19.0079993" width="8.97599968" height="4.22399985"></rect>
                    <rect id="Rectangle" x="27.455999" y="12.6719995" width="14.7839995" height="4.22399985"></rect>
                    <rect id="Rectangle" x="10.5599996" y="6.33599977" width="31.6799989" height="4.22399985"></rect>
                    <rect id="Rectangle" x="0" y="12.6719995" width="25.3439991" height="4.22399985"></rect>
                    <rect id="Rectangle" x="19.0079993" y="0" width="4.22399985" height="4.22399985"></rect>
                    <rect id="Rectangle" x="25.3439991" y="0" width="4.22399985" height="4.22399985"></rect>
                    <rect id="Rectangle" x="31.6799989" y="0" width="4.22399985" height="4.22399985"></rect>
                    <rect id="Rectangle" x="38.0159986" y="0" width="4.22399985" height="4.22399985"></rect>
                </g>
            </g>
        </g>
    </g>
</svg>